<svg width="461" height="21" viewBox="0 0 461 21" fill="none" xmlns="http://www.w3.org/2000/svg">
<path d="M185.57 10.25V10.9531C185.57 11.9199 185.444 12.7871 185.192 13.5547C184.94 14.3223 184.58 14.9756 184.111 15.5146C183.648 16.0537 183.092 16.4668 182.441 16.7539C181.791 17.0352 181.07 17.1758 180.279 17.1758C179.494 17.1758 178.776 17.0352 178.126 16.7539C177.481 16.4668 176.922 16.0537 176.447 15.5146C175.973 14.9756 175.604 14.3223 175.34 13.5547C175.082 12.7871 174.953 11.9199 174.953 10.9531V10.25C174.953 9.2832 175.082 8.41895 175.34 7.65723C175.598 6.88965 175.961 6.23633 176.43 5.69727C176.904 5.15234 177.464 4.73926 178.108 4.45801C178.759 4.1709 179.477 4.02734 180.262 4.02734C181.053 4.02734 181.773 4.1709 182.424 4.45801C183.074 4.73926 183.634 5.15234 184.103 5.69727C184.571 6.23633 184.932 6.88965 185.184 7.65723C185.441 8.41895 185.57 9.2832 185.57 10.25ZM183.364 10.9531V10.2324C183.364 9.51758 183.294 8.8877 183.153 8.34277C183.019 7.79199 182.816 7.33203 182.547 6.96289C182.283 6.58789 181.958 6.30664 181.571 6.11914C181.185 5.92578 180.748 5.8291 180.262 5.8291C179.775 5.8291 179.342 5.92578 178.961 6.11914C178.58 6.30664 178.255 6.58789 177.985 6.96289C177.722 7.33203 177.52 7.79199 177.379 8.34277C177.238 8.8877 177.168 9.51758 177.168 10.2324V10.9531C177.168 11.668 177.238 12.3008 177.379 12.8516C177.52 13.4023 177.725 13.8682 177.994 14.249C178.27 14.624 178.598 14.9082 178.979 15.1016C179.359 15.2891 179.793 15.3828 180.279 15.3828C180.771 15.3828 181.208 15.2891 181.589 15.1016C181.97 14.9082 182.292 14.624 182.556 14.249C182.819 13.8682 183.019 13.4023 183.153 12.8516C183.294 12.3008 183.364 11.668 183.364 10.9531ZM189.692 9.30078V17H187.574V7.49023H189.596L189.692 9.30078ZM192.602 7.42871L192.584 9.39746C192.455 9.37402 192.314 9.35645 192.162 9.34473C192.016 9.33301 191.869 9.32715 191.723 9.32715C191.359 9.32715 191.04 9.37988 190.765 9.48535C190.489 9.58496 190.258 9.73145 190.07 9.9248C189.889 10.1123 189.748 10.3408 189.648 10.6104C189.549 10.8799 189.49 11.1816 189.473 11.5156L188.989 11.5508C188.989 10.9531 189.048 10.3994 189.165 9.88965C189.282 9.37988 189.458 8.93164 189.692 8.54492C189.933 8.1582 190.231 7.85645 190.589 7.63965C190.952 7.42285 191.371 7.31445 191.846 7.31445C191.975 7.31445 192.112 7.32617 192.259 7.34961C192.411 7.37305 192.525 7.39941 192.602 7.42871ZM200.538 9.30078V17H198.42V7.49023H200.441L200.538 9.30078ZM203.447 7.42871L203.43 9.39746C203.301 9.37402 203.16 9.35645 203.008 9.34473C202.861 9.33301 202.715 9.32715 202.568 9.32715C202.205 9.32715 201.886 9.37988 201.61 9.48535C201.335 9.58496 201.104 9.73145 200.916 9.9248C200.734 10.1123 200.594 10.3408 200.494 10.6104C200.395 10.8799 200.336 11.1816 200.318 11.5156L199.835 11.5508C199.835 10.9531 199.894 10.3994 200.011 9.88965C200.128 9.37988 200.304 8.93164 200.538 8.54492C200.778 8.1582 201.077 7.85645 201.435 7.63965C201.798 7.42285 202.217 7.31445 202.691 7.31445C202.82 7.31445 202.958 7.32617 203.104 7.34961C203.257 7.37305 203.371 7.39941 203.447 7.42871ZM208.791 17.1758C208.088 17.1758 207.452 17.0615 206.884 16.833C206.321 16.5986 205.841 16.2734 205.442 15.8574C205.05 15.4414 204.748 14.9521 204.537 14.3896C204.326 13.8271 204.221 13.2207 204.221 12.5703V12.2188C204.221 11.4746 204.329 10.8008 204.546 10.1973C204.763 9.59375 205.064 9.07812 205.451 8.65039C205.838 8.2168 206.295 7.88574 206.822 7.65723C207.35 7.42871 207.921 7.31445 208.536 7.31445C209.216 7.31445 209.811 7.42871 210.32 7.65723C210.83 7.88574 211.252 8.20801 211.586 8.62402C211.926 9.03418 212.178 9.52344 212.342 10.0918C212.512 10.6602 212.597 11.2871 212.597 11.9727V12.8779H205.249V11.3574H210.505V11.1904C210.493 10.8096 210.417 10.4521 210.276 10.1182C210.142 9.78418 209.934 9.51465 209.652 9.30957C209.371 9.10449 208.996 9.00195 208.527 9.00195C208.176 9.00195 207.862 9.07812 207.587 9.23047C207.317 9.37695 207.092 9.59082 206.91 9.87207C206.729 10.1533 206.588 10.4932 206.488 10.8916C206.395 11.2842 206.348 11.7266 206.348 12.2188V12.5703C206.348 12.9863 206.403 13.373 206.515 13.7305C206.632 14.082 206.802 14.3896 207.024 14.6533C207.247 14.917 207.517 15.125 207.833 15.2773C208.149 15.4238 208.51 15.4971 208.914 15.4971C209.424 15.4971 209.878 15.3945 210.276 15.1895C210.675 14.9844 211.021 14.6943 211.313 14.3193L212.43 15.4004C212.225 15.6992 211.958 15.9863 211.63 16.2617C211.302 16.5312 210.9 16.751 210.426 16.9209C209.957 17.0908 209.412 17.1758 208.791 17.1758ZM220.34 7.49023H222.265V16.7363C222.265 17.5918 222.083 18.3184 221.72 18.916C221.356 19.5137 220.85 19.9678 220.199 20.2783C219.549 20.5947 218.796 20.7529 217.94 20.7529C217.577 20.7529 217.173 20.7002 216.728 20.5947C216.288 20.4893 215.86 20.3193 215.444 20.085C215.034 19.8564 214.691 19.5547 214.416 19.1797L215.409 17.9316C215.749 18.3359 216.124 18.6318 216.534 18.8193C216.944 19.0068 217.375 19.1006 217.826 19.1006C218.312 19.1006 218.726 19.0098 219.065 18.8281C219.411 18.6523 219.678 18.3916 219.865 18.0459C220.053 17.7002 220.146 17.2783 220.146 16.7803V9.64355L220.34 7.49023ZM213.88 12.3506V12.166C213.88 11.4453 213.968 10.7891 214.144 10.1973C214.319 9.59961 214.571 9.08691 214.899 8.65918C215.228 8.22559 215.626 7.89453 216.095 7.66602C216.563 7.43164 217.094 7.31445 217.686 7.31445C218.301 7.31445 218.825 7.42578 219.259 7.64844C219.698 7.87109 220.064 8.19043 220.357 8.60645C220.65 9.0166 220.879 9.50879 221.043 10.083C221.213 10.6514 221.339 11.2842 221.421 11.9814V12.5703C221.345 13.25 221.216 13.8711 221.034 14.4336C220.853 14.9961 220.612 15.4824 220.313 15.8926C220.015 16.3027 219.646 16.6191 219.206 16.8418C218.772 17.0645 218.26 17.1758 217.668 17.1758C217.088 17.1758 216.563 17.0557 216.095 16.8154C215.632 16.5752 215.233 16.2383 214.899 15.8047C214.571 15.3711 214.319 14.8613 214.144 14.2754C213.968 13.6836 213.88 13.042 213.88 12.3506ZM215.998 12.166V12.3506C215.998 12.7842 216.039 13.1885 216.121 13.5635C216.209 13.9385 216.341 14.2695 216.517 14.5566C216.698 14.8379 216.927 15.0605 217.202 15.2246C217.483 15.3828 217.814 15.4619 218.195 15.4619C218.693 15.4619 219.101 15.3564 219.417 15.1455C219.739 14.9346 219.985 14.6504 220.155 14.293C220.331 13.9297 220.454 13.5254 220.524 13.0801V11.4893C220.489 11.1436 220.416 10.8213 220.305 10.5225C220.199 10.2236 220.056 9.96289 219.874 9.74023C219.692 9.51172 219.464 9.33594 219.188 9.21289C218.913 9.08398 218.588 9.01953 218.213 9.01953C217.832 9.01953 217.501 9.10156 217.22 9.26562C216.938 9.42969 216.707 9.65527 216.525 9.94238C216.35 10.2295 216.218 10.5635 216.13 10.9443C216.042 11.3252 215.998 11.7324 215.998 12.166ZM226.729 7.49023V17H224.603V7.49023H226.729ZM224.462 4.99414C224.462 4.67187 224.567 4.40527 224.778 4.19434C224.995 3.97754 225.294 3.86914 225.675 3.86914C226.05 3.86914 226.346 3.97754 226.562 4.19434C226.779 4.40527 226.888 4.67187 226.888 4.99414C226.888 5.31055 226.779 5.57422 226.562 5.78516C226.346 5.99609 226.05 6.10156 225.675 6.10156C225.294 6.10156 224.995 5.99609 224.778 5.78516C224.567 5.57422 224.462 5.31055 224.462 4.99414ZM234.385 14.4248C234.385 14.2139 234.332 14.0234 234.227 13.8535C234.121 13.6777 233.919 13.5195 233.62 13.3789C233.327 13.2383 232.894 13.1094 232.319 12.9922C231.815 12.8809 231.353 12.749 230.931 12.5967C230.515 12.4385 230.157 12.248 229.858 12.0254C229.56 11.8027 229.328 11.5391 229.164 11.2344C229 10.9297 228.918 10.5781 228.918 10.1797C228.918 9.79297 229.003 9.42676 229.173 9.08105C229.343 8.73535 229.586 8.43066 229.902 8.16699C230.219 7.90332 230.603 7.69531 231.054 7.54297C231.511 7.39063 232.021 7.31445 232.583 7.31445C233.38 7.31445 234.062 7.44922 234.631 7.71875C235.205 7.98242 235.645 8.34277 235.949 8.7998C236.254 9.25098 236.406 9.76074 236.406 10.3291H234.288C234.288 10.0771 234.224 9.84277 234.095 9.62598C233.972 9.40332 233.784 9.22461 233.532 9.08984C233.28 8.94922 232.964 8.87891 232.583 8.87891C232.22 8.87891 231.918 8.9375 231.678 9.05469C231.443 9.16602 231.268 9.3125 231.15 9.49414C231.039 9.67578 230.983 9.875 230.983 10.0918C230.983 10.25 231.013 10.3936 231.071 10.5225C231.136 10.6455 231.241 10.7598 231.388 10.8652C231.534 10.9648 231.733 11.0586 231.985 11.1465C232.243 11.2344 232.565 11.3193 232.952 11.4014C233.679 11.5537 234.303 11.75 234.824 11.9902C235.352 12.2246 235.756 12.5293 236.037 12.9043C236.318 13.2734 236.459 13.7422 236.459 14.3105C236.459 14.7324 236.368 15.1191 236.187 15.4707C236.011 15.8164 235.753 16.1182 235.413 16.376C235.073 16.6279 234.666 16.8242 234.191 16.9648C233.723 17.1055 233.195 17.1758 232.609 17.1758C231.748 17.1758 231.019 17.0234 230.421 16.7188C229.823 16.4082 229.369 16.0127 229.059 15.5322C228.754 15.0459 228.602 14.542 228.602 14.0205H230.649C230.673 14.4131 230.781 14.7266 230.975 14.9609C231.174 15.1895 231.42 15.3564 231.713 15.4619C232.012 15.5615 232.319 15.6113 232.636 15.6113C233.017 15.6113 233.336 15.5615 233.594 15.4619C233.852 15.3564 234.048 15.2158 234.183 15.04C234.317 14.8584 234.385 14.6533 234.385 14.4248ZM242.673 7.49023V9.03711H237.312V7.49023H242.673ZM238.858 5.16113H240.977V14.3721C240.977 14.665 241.018 14.8906 241.1 15.0488C241.188 15.2012 241.308 15.3037 241.46 15.3564C241.612 15.4092 241.791 15.4355 241.996 15.4355C242.143 15.4355 242.283 15.4268 242.418 15.4092C242.553 15.3916 242.661 15.374 242.743 15.3564L242.752 16.9736C242.576 17.0264 242.371 17.0732 242.137 17.1143C241.908 17.1553 241.645 17.1758 241.346 17.1758C240.859 17.1758 240.429 17.0908 240.054 16.9209C239.679 16.7451 239.386 16.4609 239.175 16.0684C238.964 15.6758 238.858 15.1543 238.858 14.5039V5.16113ZM248.5 17.1758C247.797 17.1758 247.161 17.0615 246.593 16.833C246.03 16.5986 245.55 16.2734 245.151 15.8574C244.759 15.4414 244.457 14.9521 244.246 14.3896C244.035 13.8271 243.93 13.2207 243.93 12.5703V12.2188C243.93 11.4746 244.038 10.8008 244.255 10.1973C244.472 9.59375 244.773 9.07812 245.16 8.65039C245.547 8.2168 246.004 7.88574 246.531 7.65723C247.059 7.42871 247.63 7.31445 248.245 7.31445C248.925 7.31445 249.52 7.42871 250.029 7.65723C250.539 7.88574 250.961 8.20801 251.295 8.62402C251.635 9.03418 251.887 9.52344 252.051 10.0918C252.221 10.6602 252.306 11.2871 252.306 11.9727V12.8779H244.958V11.3574H250.214V11.1904C250.202 10.8096 250.126 10.4521 249.985 10.1182C249.851 9.78418 249.643 9.51465 249.361 9.30957C249.08 9.10449 248.705 9.00195 248.236 9.00195C247.885 9.00195 247.571 9.07812 247.296 9.23047C247.026 9.37695 246.801 9.59082 246.619 9.87207C246.438 10.1533 246.297 10.4932 246.197 10.8916C246.104 11.2842 246.057 11.7266 246.057 12.2188V12.5703C246.057 12.9863 246.112 13.373 246.224 13.7305C246.341 14.082 246.511 14.3896 246.733 14.6533C246.956 14.917 247.226 15.125 247.542 15.2773C247.858 15.4238 248.219 15.4971 248.623 15.4971C249.133 15.4971 249.587 15.3945 249.985 15.1895C250.384 14.9844 250.729 14.6943 251.022 14.3193L252.139 15.4004C251.934 15.6992 251.667 15.9863 251.339 16.2617C251.011 16.5312 250.609 16.751 250.135 16.9209C249.666 17.0908 249.121 17.1758 248.5 17.1758ZM256.085 9.30078V17H253.967V7.49023H255.988L256.085 9.30078ZM258.994 7.42871L258.977 9.39746C258.848 9.37402 258.707 9.35645 258.555 9.34473C258.408 9.33301 258.262 9.32715 258.115 9.32715C257.752 9.32715 257.433 9.37988 257.157 9.48535C256.882 9.58496 256.65 9.73145 256.463 9.9248C256.281 10.1123 256.141 10.3408 256.041 10.6104C255.941 10.8799 255.883 11.1816 255.865 11.5156L255.382 11.5508C255.382 10.9531 255.44 10.3994 255.558 9.88965C255.675 9.37988 255.851 8.93164 256.085 8.54492C256.325 8.1582 256.624 7.85645 256.981 7.63965C257.345 7.42285 257.764 7.31445 258.238 7.31445C258.367 7.31445 258.505 7.32617 258.651 7.34961C258.804 7.37305 258.918 7.39941 258.994 7.42871ZM267.897 15.3213L270.227 7.49023H272.424L269.119 17H267.748L267.897 15.3213ZM266.113 7.49023L268.486 15.3564L268.601 17H267.229L263.907 7.49023H266.113ZM276.001 7.49023V17H273.874V7.49023H276.001ZM273.733 4.99414C273.733 4.67187 273.839 4.40527 274.05 4.19434C274.267 3.97754 274.565 3.86914 274.946 3.86914C275.321 3.86914 275.617 3.97754 275.834 4.19434C276.051 4.40527 276.159 4.67187 276.159 4.99414C276.159 5.31055 276.051 5.57422 275.834 5.78516C275.617 5.99609 275.321 6.10156 274.946 6.10156C274.565 6.10156 274.267 5.99609 274.05 5.78516C273.839 5.57422 273.733 5.31055 273.733 4.99414ZM283.683 15.0928V10.5576C283.683 10.2178 283.621 9.9248 283.498 9.67871C283.375 9.43262 283.188 9.24219 282.936 9.10742C282.689 8.97266 282.379 8.90527 282.004 8.90527C281.658 8.90527 281.359 8.96387 281.107 9.08105C280.855 9.19824 280.659 9.35645 280.519 9.55566C280.378 9.75488 280.308 9.98047 280.308 10.2324H278.198C278.198 9.85742 278.289 9.49414 278.471 9.14258C278.652 8.79102 278.916 8.47754 279.262 8.20215C279.607 7.92676 280.021 7.70996 280.501 7.55176C280.981 7.39355 281.521 7.31445 282.118 7.31445C282.833 7.31445 283.466 7.43457 284.017 7.6748C284.573 7.91504 285.01 8.27832 285.326 8.76465C285.648 9.24512 285.81 9.84863 285.81 10.5752V14.8027C285.81 15.2363 285.839 15.626 285.897 15.9717C285.962 16.3115 286.053 16.6074 286.17 16.8594V17H283.999C283.899 16.7715 283.82 16.4814 283.762 16.1299C283.709 15.7725 283.683 15.4268 283.683 15.0928ZM283.99 11.2168L284.008 12.5264H282.487C282.095 12.5264 281.749 12.5645 281.45 12.6406C281.151 12.7109 280.902 12.8164 280.703 12.957C280.504 13.0977 280.354 13.2676 280.255 13.4668C280.155 13.666 280.105 13.8916 280.105 14.1436C280.105 14.3955 280.164 14.627 280.281 14.8379C280.398 15.043 280.568 15.2041 280.791 15.3213C281.02 15.4385 281.295 15.4971 281.617 15.4971C282.051 15.4971 282.429 15.4092 282.751 15.2334C283.079 15.0518 283.337 14.832 283.524 14.5742C283.712 14.3105 283.812 14.0615 283.823 13.8271L284.509 14.7676C284.438 15.0078 284.318 15.2656 284.148 15.541C283.979 15.8164 283.756 16.0801 283.48 16.332C283.211 16.5781 282.886 16.7803 282.505 16.9385C282.13 17.0967 281.696 17.1758 281.204 17.1758C280.583 17.1758 280.029 17.0527 279.543 16.8066C279.057 16.5547 278.676 16.2178 278.4 15.7959C278.125 15.3682 277.987 14.8848 277.987 14.3457C277.987 13.8418 278.081 13.3965 278.269 13.0098C278.462 12.6172 278.743 12.2891 279.112 12.0254C279.487 11.7617 279.944 11.5625 280.483 11.4277C281.022 11.2871 281.638 11.2168 282.329 11.2168H283.99Z" fill="#959595"/>
<line y1="12.5" x2="156" y2="12.5" stroke="#E6E6E6"/>
<line x1="305" y1="12.5" x2="461" y2="12.5" stroke="#E6E6E6"/>
</svg>
